<svg id="Layer_1" data-name="Layer 1" xmlns="http://www.w3.org/2000/svg" viewBox="0 0 326.78 271.57"><defs><style>.cls-1{fill:#fff;}.cls-2{fill:#0a0806;}.cls-3{fill:#fefefe;}</style></defs><title>duck</title><path d="M601.14,14.55c7,1.75,13.17,5,17.89,10.55,2.57,3,4.88,6.32,7.42,9.39,3.28,4,6.32,8.26,10.1,11.7,5.82,5.3,13.49,5.74,20.91,6.52,3.16.33,6.32.65,9.46,1.13,3.77.58,6.94,2.11,8.41,6v3.82a10.23,10.23,0,0,1-6.43,5.42c-7.81,2.05-15.78,2.84-23.71,1.21a156.89,156.89,0,0,1-17-4.88c-8.34-2.72-16.75-2.68-24.94-1.31,0,11.28-.06,22.35,0,33.42A64.35,64.35,0,0,0,609,123.37q3,6.84,6.13,13.67a56.69,56.69,0,0,1,4.19,35.9c-4.4,20.9-16.27,36.87-33.33,49.07-13.2,9.44-28,15.66-43.79,19.43-.93.22-2.36.92-2.47,1.58-.93,5.81-2.12,11.64-2.24,17.49-.13,6.19,4.11,9.78,10.34,9.85a37.63,37.63,0,0,0,5.17-.26c10.19-1.29,20,1.09,30,2.62-3.65.8-6.44,2.53-7.16,5.88-4.77.69-9.18,1.16-13.52,2-2.89.57-5.49,1.42-8.33-.62-1.49-1.07-3.8-1-5.75-1.44-2.75-.56-5.65-.71-8.24-1.68-2.95-1.11-4.93-.19-6.7,1.92a32.65,32.65,0,0,0-2.23,3.45l-1.52-1.18c-3.46-2.73-4.21-2.58-6.34,1.23-1.87,3.34-3.87,4.06-7.94,3.78-4.67-.31-9.37-.15-14.05-.22a25.79,25.79,0,0,1-5.11-.22c-4.61-1-9.17-2.21-13.73-3.43-1.58-.42-3.1-1.1-4.64-1.66v-.68l16.38-6.13c-4.4-10.76-2.09-21.64.47-32.9-2.75.18-5.1.19-7.41.5-7.77,1-15.51,1.85-23.23-.46-2.34-.7-4.78-1.08-7.18-1.59-13-2.72-26-5.17-38.87-8.29-4.47-1.08-8.57-3.74-12.78-5.8-.48-.23-.57-1.24-.84-1.89-.87-1.1-2.44-1.64-3.81-2.51a132.47,132.47,0,0,1-12.15-8.15c-3.14-2.53-2.63-5.2.72-7.2l1.57-.92c-2.31-1.41-4.33-2.82-6.49-3.94-8.46-4.38-17-8.54-25.42-13.07-3.59-1.94-6.81-4.57-10.2-6.89l.42-.81c19-.7,36.15,7.34,54.27,11.07l-28.15-13.49.4-.88c5.32,1.75,10.62,3.59,16,5.22,7.3,2.23,14.62,4.43,22.39,4,4.86-.25,7.66-2.29,8.72-6.08l-25.73-7a15.35,15.35,0,0,1,14.29-.18c5.71,2.63,10.76,1.69,15.66-2.27a134.44,134.44,0,0,1,15.44-11.16c17.14-10.21,35.86-16.59,55.07-21.61,11.76-3.07,23.61-4.88,35.85-2.95a93,93,0,0,0,18.13,1.5c10.63-.44,18-6.15,21.88-16.07,2.34-5.92,2.63-12.17,3.05-18.44.89-13.29-1.16-25.84-8-37.47a43,43,0,0,1-4.45-10.21,32.83,32.83,0,0,1-1.48-11.2c.78-9.46,6.38-16.14,13.9-21.41,5.07-3.55,10.85-5.33,16.8-6.66Zm-71.95,245c.17-2.17.43-4.33.72-6.49.53-4-1.37-7-4.28-9.45a2.68,2.68,0,0,0-1.46-.53c-6.23-.45-12.47-.86-18.62-1.28-1,4.78-2.06,9.52-2.85,14.31-1.28,7.79,2.29,13.83,9.79,16.33a43.89,43.89,0,0,0,9,1.78c4.68.52,9.4.72,14.95,1.12C531.24,270.82,528.7,265.84,529.19,259.58Z" transform="translate(-348.55 -14.55)"/><path class="cls-1" d="M479.58,193.49a21.1,21.1,0,0,1,9-14.54,15,15,0,0,1,1.42-.76,2.46,2.46,0,0,1,.22.48,7.17,7.17,0,0,0,5.37,6.22c3.2,1.05,6.44.8,9.71.36,3.82-.52,7.66-.95,11.49-1.42.38,0,.75-.15,1.11-.23a1.3,1.3,0,0,0,0-.34c-.31-.55-.6-1.13-1-1.65a20.18,20.18,0,0,1-3.14-15.19,21,21,0,0,1,18.37-17.29,21.21,21.21,0,0,1,22.38,14,6.9,6.9,0,0,1-1.3,7.34c-.46.55-1,1-1.42,1.62a21.54,21.54,0,0,0-2.32,3.45,3.6,3.6,0,0,0,.59,4.42,7.42,7.42,0,0,1,1,1.6,1.65,1.65,0,0,1-.43,2.42c-2.12,1.62-4.19,3.3-6.32,4.89-.94.7-1,1.18-.2,2,.23.22.49.41.72.63,4.84,4.82,7.63,10.47,6.56,17.43-.84,5.46-3.49,9.91-8.43,12.69a6.28,6.28,0,0,1-2.93.77c-16.08,0-32.15,0-48.23.09a5.69,5.69,0,0,1-4.95-2.21c-.49-.61-1-1.17-1.5-1.8A31.66,31.66,0,0,1,479.58,193.49Z" transform="translate(-348.55 -14.55)"/><path class="cls-2" d="M547.86,191c4.44,5.19,7.08,11,6,18-1,6.63-4.24,11.89-10.39,15a7.08,7.08,0,0,1-3.08.71c-16.32,0-32.63,0-48.95.09a7,7,0,0,1-5.85-2.53c-.61-.72-1.28-1.39-1.85-2.13a33.75,33.75,0,0,1-7-18.52A29.48,29.48,0,0,1,481,183.31a21.27,21.27,0,0,1,7.31-7,2.7,2.7,0,0,1,4.32,1.84c.65,3.09,2.86,5.12,6,4.94,5.07-.29,10.12-.92,15.38-1.42l-.66-1.36a23.51,23.51,0,1,1,43.28-18.24c.6,1.73,1.55,2.51,3.17,2.58,2.06.09,4.13,0,6.19,0,3.08-.11,4.44,1.49,3.82,4.48a9.62,9.62,0,0,1-5.4,6.94c.13.16.22.29.32.41,1.64,1.87,1.23,3.45-1.12,4.23-.38.13-.78.17-1.16.29-2.7.81-5.4,1.61-8.09,2.44a1.59,1.59,0,0,0-.77.52,22.32,22.32,0,0,1-6.63,6.1C547.36,190.48,547.62,190.73,547.86,191Zm-31-7.18c-3.83.48-7.67.9-11.49,1.42-3.27.44-6.51.69-9.71-.36a7.17,7.17,0,0,1-5.37-6.22,2.46,2.46,0,0,0-.22-.48,14.94,14.94,0,0,0-1.42.76,21.1,21.1,0,0,0-9,14.54,31.66,31.66,0,0,0,5.83,24.92c.46.63,1,1.19,1.5,1.8a5.69,5.69,0,0,0,4.95,2.21c16.08-.11,32.15,0,48.23-.09a6.28,6.28,0,0,0,2.93-.77c4.95-2.78,7.6-7.23,8.43-12.69,1.07-7-1.72-12.62-6.56-17.43-.23-.23-.49-.41-.72-.63-.84-.81-.74-1.29.2-2,2.13-1.6,4.2-3.27,6.32-4.89a1.65,1.65,0,0,0,.43-2.42,7.42,7.42,0,0,0-1-1.6,3.6,3.6,0,0,1-.59-4.42,21.54,21.54,0,0,1,2.32-3.45c.42-.58,1-1.07,1.42-1.62a6.9,6.9,0,0,0,1.3-7.34,21.21,21.21,0,0,0-22.38-14,21,21,0,0,0-18.37,17.29,20.18,20.18,0,0,0,3.14,15.19c.36.53.64,1.1,1,1.65a1.3,1.3,0,0,1,0,.34C517.56,183.67,517.19,183.78,516.82,183.83Zm46.6-5.53-1.52-1.15c-.86-.63-.91-1.4,0-2a25.35,25.35,0,0,1,2.24-1.38,7.39,7.39,0,0,0,3.64-5.36c.2-1.13-.17-1.56-1.34-1.51-1.55.07-3.1.3-4.65.26a41.55,41.55,0,0,1-4.35-.57c-.34,3-2.33,5.27-4.36,7.49a10.24,10.24,0,0,0-1.13,1.54,3,3,0,0,0,.15,3.87c.48.58.88,1.23,1.25,1.77Z" transform="translate(-348.55 -14.55)"/><path class="cls-1" d="M553.29,181.22l10.13-2.92-1.52-1.15c-.86-.63-.91-1.4,0-2a25.35,25.35,0,0,1,2.24-1.38,7.39,7.39,0,0,0,3.64-5.36c.2-1.13-.17-1.56-1.34-1.51-1.55.07-3.1.3-4.65.26a41.55,41.55,0,0,1-4.35-.57c-.34,3-2.33,5.27-4.36,7.49a10.24,10.24,0,0,0-1.13,1.54,3,3,0,0,0,.15,3.87C552.52,180,552.91,180.68,553.29,181.22Z" transform="translate(-348.55 -14.55)"/><path class="cls-2" d="M544.55,162a12.32,12.32,0,0,1,1.21.52,4.11,4.11,0,0,1,1.45,5.89,4.18,4.18,0,0,1-5.9,1.11,4,4,0,0,1-1.62-4.4,4.15,4.15,0,0,1,4.13-3.16Zm-1.77,3.3a1.82,1.82,0,0,0,1.85,1.77,1.87,1.87,0,0,0,1.8-1.84,1.84,1.84,0,0,0-1.86-1.76A1.81,1.81,0,0,0,542.78,165.32Z" transform="translate(-348.55 -14.55)"/><path class="cls-3" d="M544.57,163.49a1.8,1.8,0,1,0,.06,3.6,1.87,1.87,0,0,0,1.8-1.84A1.84,1.84,0,0,0,544.57,163.49Z" transform="translate(-348.55 -14.55)"/><circle class="cls-1" cx="248.12" cy="24.79" r="14.33"/><path d="M587.4,44V34h5.16a7.5,7.5,0,0,1,2.19.25,2.34,2.34,0,0,1,1.22.91,2.83,2.83,0,0,1-.87,4,3.74,3.74,0,0,1-1.09.4,2.1,2.1,0,0,1,1.3.9,3.94,3.94,0,0,1,.43.62l1.5,2.9h-3.5l-1.66-3.06a2.33,2.33,0,0,0-.56-.77,1.3,1.3,0,0,0-.76-.23h-.27V44Zm3.11-6h1.31a4.64,4.64,0,0,0,.82-.14.82.82,0,0,0,.5-.31,1,1,0,0,0-.11-1.33,1.86,1.86,0,0,0-1.16-.26h-1.36Z" transform="translate(-348.55 -14.55)"/><path d="M598.29,34h4.6a5.51,5.51,0,0,1,2.2.37,3.57,3.57,0,0,1,1.38,1.06,4.38,4.38,0,0,1,.79,1.61,7.46,7.46,0,0,1,.25,1.94,6.76,6.76,0,0,1-.37,2.49,4.12,4.12,0,0,1-1,1.48,3.31,3.31,0,0,1-1.39.8,7.19,7.19,0,0,1-1.85.27h-4.6Zm3.1,2.27v5.48h.76a3.19,3.19,0,0,0,1.38-.22,1.46,1.46,0,0,0,.64-.75A4.71,4.71,0,0,0,604.4,39a3.38,3.38,0,0,0-.52-2.18,2.2,2.2,0,0,0-1.72-.59Z" transform="translate(-348.55 -14.55)"/></svg>