<svg id="Layer_1" data-name="Layer 1" xmlns="http://www.w3.org/2000/svg" viewBox="0 0 245.9 245.95"><defs><style>.cls-1{fill:#fff;}</style></defs><title>Facebook_logo_36x36</title><path d="M525.33,273.51H389.53V27.56h245.9V273.51H568.38c.05-1,.14-2,.14-3.06q0-45.61,0-91.22c0-2.22.52-3,2.83-2.91,7.77.14,15.54,0,23.32.08,1.74,0,2.5-.31,2.7-2.32,1-10.43,2.2-20.85,3.41-31.26.23-2-.36-2.71-2.44-2.69-8.88.09-17.76,0-26.65,0-1,0-2-.09-3.06-.14,0-7.38-.23-14.47.07-21.53.25-5.66,2.38-8.18,6.86-9.22a23.9,23.9,0,0,1,5.06-.62c5.81-.08,11.62-.1,17.42,0,1.9,0,2.77-.44,2.76-2.55q-.12-15.63,0-31.26c0-1.9-.62-2.51-2.52-2.48-6.32.1-12.64-.11-19,.08-7.24.21-14.54.16-21.67,1.2-11.49,1.67-21,7-26.73,17.64-4,7.28-5.41,15.23-5.63,23.4-.2,7.51-.06,15-.07,22.55,0,.9,0,1.81,0,3H522c-5.3,0-10.59.06-15.89,0-1.91,0-2.51.65-2.49,2.53.07,10.42.09,20.84,0,31.26,0,2.1.76,2.64,2.67,2.62,5.21-.07,10.42.1,15.63-.07,2.52-.08,3.32.59,3.31,3.27-.11,30.15-.07,60.3-.06,90.45C525.17,271.3,525.27,272.41,525.33,273.51Z" transform="translate(-389.53 -27.56)"/><path class="cls-1" d="M525.33,273.51c-.05-1.1-.16-2.21-.16-3.31,0-30.15,0-60.3.06-90.45,0-2.68-.79-3.35-3.31-3.27-5.2.16-10.42,0-15.63.07-1.9,0-2.69-.52-2.67-2.62.1-10.42.08-20.84,0-31.26,0-1.88.59-2.56,2.49-2.53,5.29.09,10.59,0,15.89,0h3.14c0-1.15,0-2.05,0-3,0-7.52-.13-15,.07-22.55.22-8.17,1.67-16.12,5.63-23.4,5.77-10.6,15.24-16,26.73-17.64,7.13-1,14.44-1,21.67-1.2,6.32-.18,12.64,0,19-.08,1.9,0,2.53.57,2.52,2.48q-.1,15.63,0,31.26c0,2.11-.85,2.58-2.76,2.55-5.81-.08-11.62-.06-17.42,0a23.9,23.9,0,0,0-5.06.62c-4.47,1-6.61,3.56-6.86,9.22-.31,7.07-.07,14.15-.07,21.53,1.09.05,2.07.14,3.06.14,8.88,0,17.77.06,26.65,0,2.08,0,2.67.67,2.44,2.69-1.21,10.41-2.4,20.83-3.41,31.26-.2,2-1,2.34-2.7,2.32-7.77-.07-15.55.06-23.32-.08-2.31,0-2.84.7-2.83,2.91q.11,45.61,0,91.22c0,1-.09,2-.14,3.06Z" transform="translate(-389.53 -27.56)"/></svg>